<?xml version="1.0" encoding="us-ascii" standalone="no"?><svg xmlns="http://www.w3.org/2000/svg" xmlns:xlink="http://www.w3.org/1999/xlink" contentStyleType="text/css" height="981px" preserveAspectRatio="none" style="width:705px;height:981px;background:#FFFFFF;" version="1.1" viewBox="0 0 705 981" width="705px" zoomAndPan="magnify"><defs/><g><rect fill="#FFFFFF" height="869.3848" style="stroke:#181818;stroke-width:1.0;" width="10" x="114" y="67.7988"/><rect fill="#FFBBBB" height="64.3105" style="stroke:#181818;stroke-width:1.0;" width="10" x="119" y="105.1094"/><rect fill="#FFFFFF" height="679.832" style="stroke:#181818;stroke-width:1.0;" width="10" x="309" y="257.3516"/><rect fill="#FFFFFF" height="738.4531" style="stroke:#181818;stroke-width:1.0;" width="10" x="526" y="198.7305"/><rect fill="#FFFFFF" height="797.7637" style="stroke:#181818;stroke-width:1.0;" width="10" x="662.5" y="139.4199"/><line style="stroke:#181818;stroke-width:0.5;stroke-dasharray:5.0,5.0;" x1="27" x2="27" y1="36.4883" y2="946.1836"/><line style="stroke:#181818;stroke-width:0.5;stroke-dasharray:5.0,5.0;" x1="119" x2="119" y1="36.4883" y2="946.1836"/><line style="stroke:#181818;stroke-width:0.5;stroke-dasharray:5.0,5.0;" x1="313.5" x2="313.5" y1="36.4883" y2="946.1836"/><line style="stroke:#181818;stroke-width:0.5;stroke-dasharray:5.0,5.0;" x1="530.5" x2="530.5" y1="36.4883" y2="946.1836"/><line style="stroke:#181818;stroke-width:0.5;stroke-dasharray:5.0,5.0;" x1="667.5" x2="667.5" y1="36.4883" y2="946.1836"/><rect fill="#E2E2F0" height="30.4883" rx="2.5" ry="2.5" style="stroke:#181818;stroke-width:0.5;" width="45" x="5" y="5"/><text fill="#000000" font-family="sans-serif" font-size="14" lengthAdjust="spacing" textLength="31" x="12" y="25.5352">User</text><rect fill="#E2E2F0" height="30.4883" rx="2.5" ry="2.5" style="stroke:#181818;stroke-width:0.5;" width="45" x="5" y="945.1836"/><text fill="#000000" font-family="sans-serif" font-size="14" lengthAdjust="spacing" textLength="31" x="12" y="965.7188">User</text><rect fill="#E2E2F0" height="30.4883" rx="2.5" ry="2.5" style="stroke:#181818;stroke-width:0.5;" width="118" x="60" y="5"/><text fill="#000000" font-family="sans-serif" font-size="14" lengthAdjust="spacing" textLength="104" x="67" y="25.5352">DeviceManager</text><rect fill="#E2E2F0" height="30.4883" rx="2.5" ry="2.5" style="stroke:#181818;stroke-width:0.5;" width="118" x="60" y="945.1836"/><text fill="#000000" font-family="sans-serif" font-size="14" lengthAdjust="spacing" textLength="104" x="67" y="965.7188">DeviceManager</text><rect fill="#E2E2F0" height="30.4883" rx="2.5" ry="2.5" style="stroke:#181818;stroke-width:0.5;" width="123" x="252.5" y="5"/><text fill="#000000" font-family="sans-serif" font-size="14" lengthAdjust="spacing" textLength="109" x="259.5" y="25.5352">DeviceDiscovery</text><rect fill="#E2E2F0" height="30.4883" rx="2.5" ry="2.5" style="stroke:#181818;stroke-width:0.5;" width="123" x="252.5" y="945.1836"/><text fill="#000000" font-family="sans-serif" font-size="14" lengthAdjust="spacing" textLength="109" x="259.5" y="965.7188">DeviceDiscovery</text><rect fill="#E2E2F0" height="30.4883" rx="2.5" ry="2.5" style="stroke:#181818;stroke-width:0.5;" width="189" x="436.5" y="5"/><text fill="#000000" font-family="sans-serif" font-size="14" lengthAdjust="spacing" textLength="175" x="443.5" y="25.5352">WebsocketCommunicator</text><rect fill="#E2E2F0" height="30.4883" rx="2.5" ry="2.5" style="stroke:#181818;stroke-width:0.5;" width="189" x="436.5" y="945.1836"/><text fill="#000000" font-family="sans-serif" font-size="14" lengthAdjust="spacing" textLength="175" x="443.5" y="965.7188">WebsocketCommunicator</text><rect fill="#FFE4B5" height="30.4883" rx="2.5" ry="2.5" style="stroke:#181818;stroke-width:0.5;" width="64" x="635.5" y="5"/><text fill="#000000" font-family="sans-serif" font-size="14" lengthAdjust="spacing" textLength="50" x="642.5" y="25.5352">ICL.exe</text><rect fill="#FFE4B5" height="30.4883" rx="2.5" ry="2.5" style="stroke:#181818;stroke-width:0.5;" width="64" x="635.5" y="945.1836"/><text fill="#000000" font-family="sans-serif" font-size="14" lengthAdjust="spacing" textLength="50" x="642.5" y="965.7188">ICL.exe</text><rect fill="#FFFFFF" height="869.3848" style="stroke:#181818;stroke-width:1.0;" width="10" x="114" y="67.7988"/><rect fill="#FFBBBB" height="64.3105" style="stroke:#181818;stroke-width:1.0;" width="10" x="119" y="105.1094"/><rect fill="#FFFFFF" height="679.832" style="stroke:#181818;stroke-width:1.0;" width="10" x="309" y="257.3516"/><rect fill="#FFFFFF" height="738.4531" style="stroke:#181818;stroke-width:1.0;" width="10" x="526" y="198.7305"/><rect fill="#FFFFFF" height="797.7637" style="stroke:#181818;stroke-width:1.0;" width="10" x="662.5" y="139.4199"/><polygon fill="#181818" points="102,63.7988,112,67.7988,102,71.7988,106,67.7988" style="stroke:#181818;stroke-width:1.0;"/><line style="stroke:#181818;stroke-width:1.0;" x1="27.5" x2="108" y1="67.7988" y2="67.7988"/><text fill="#000000" font-family="sans-serif" font-size="13" lengthAdjust="spacing" textLength="51" x="34.5" y="63.0566">creation</text><line style="stroke:#181818;stroke-width:1.0;" x1="124" x2="171" y1="92.1094" y2="92.1094"/><line style="stroke:#181818;stroke-width:1.0;" x1="171" x2="171" y1="92.1094" y2="105.1094"/><line style="stroke:#181818;stroke-width:1.0;" x1="130" x2="171" y1="105.1094" y2="105.1094"/><polygon fill="#181818" points="140,101.1094,130,105.1094,140,109.1094,136,105.1094" style="stroke:#181818;stroke-width:1.0;"/><text fill="#000000" font-family="sans-serif" font-size="13" lengthAdjust="spacing" textLength="59" x="136" y="87.3672">start_icl()</text><polygon fill="#181818" points="650.5,135.4199,660.5,139.4199,650.5,143.4199,654.5,139.4199" style="stroke:#181818;stroke-width:1.0;"/><line style="stroke:#181818;stroke-width:1.0;" x1="129" x2="656.5" y1="139.4199" y2="139.4199"/><text fill="#000000" font-family="sans-serif" font-size="13" lengthAdjust="spacing" textLength="108" x="136" y="134.6777">start_subprocess</text><polygon fill="#181818" points="514,194.7305,524,198.7305,514,202.7305,518,198.7305" style="stroke:#181818;stroke-width:1.0;"/><line style="stroke:#181818;stroke-width:1.0;" x1="124" x2="520" y1="198.7305" y2="198.7305"/><text fill="#000000" font-family="sans-serif" font-size="13" lengthAdjust="spacing" textLength="88" x="131" y="193.9883">open(address)</text><polygon fill="#181818" points="650.5,224.041,660.5,228.041,650.5,232.041,654.5,228.041" style="stroke:#181818;stroke-width:1.0;"/><line style="stroke:#181818;stroke-width:1.0;" x1="536" x2="656.5" y1="228.041" y2="228.041"/><text fill="#000000" font-family="sans-serif" font-size="13" lengthAdjust="spacing" textLength="50" x="543" y="223.2988">connect</text><polygon fill="#181818" points="297,253.3516,307,257.3516,297,261.3516,301,257.3516" style="stroke:#181818;stroke-width:1.0;"/><line style="stroke:#181818;stroke-width:1.0;" x1="124" x2="303" y1="257.3516" y2="257.3516"/><text fill="#000000" font-family="sans-serif" font-size="13" lengthAdjust="spacing" textLength="115" x="131" y="252.6094">discover_devices()</text><polygon fill="#181818" points="514,282.6621,524,286.6621,514,290.6621,518,286.6621" style="stroke:#181818;stroke-width:1.0;"/><line style="stroke:#181818;stroke-width:1.0;" x1="319" x2="520" y1="286.6621" y2="286.6621"/><text fill="#000000" font-family="sans-serif" font-size="13" lengthAdjust="spacing" textLength="145" x="326" y="281.9199">execute('ccd_discover')</text><polygon fill="#181818" points="650.5,311.9727,660.5,315.9727,650.5,319.9727,654.5,315.9727" style="stroke:#181818;stroke-width:1.0;"/><line style="stroke:#181818;stroke-width:1.0;" x1="536" x2="656.5" y1="315.9727" y2="315.9727"/><text fill="#000000" font-family="sans-serif" font-size="13" lengthAdjust="spacing" textLength="100" x="543" y="311.2305">send(command)</text><polygon fill="#181818" points="547,341.2832,537,345.2832,547,349.2832,543,345.2832" style="stroke:#181818;stroke-width:1.0;"/><line style="stroke:#181818;stroke-width:1.0;" x1="541" x2="661.5" y1="345.2832" y2="345.2832"/><text fill="#000000" font-family="sans-serif" font-size="13" lengthAdjust="spacing" textLength="57" x="553" y="340.541">response</text><polygon fill="#181818" points="330,370.5938,320,374.5938,330,378.5938,326,374.5938" style="stroke:#181818;stroke-width:1.0;"/><line style="stroke:#181818;stroke-width:1.0;" x1="324" x2="525" y1="374.5938" y2="374.5938"/><text fill="#000000" font-family="sans-serif" font-size="13" lengthAdjust="spacing" textLength="57" x="336" y="369.8516">response</text><polygon fill="#181818" points="514,399.9043,524,403.9043,514,407.9043,518,403.9043" style="stroke:#181818;stroke-width:1.0;"/><line style="stroke:#181818;stroke-width:1.0;" x1="319" x2="520" y1="403.9043" y2="403.9043"/><text fill="#000000" font-family="sans-serif" font-size="13" lengthAdjust="spacing" textLength="112" x="326" y="399.1621">execute('ccd_list')</text><polygon fill="#181818" points="650.5,429.2148,660.5,433.2148,650.5,437.2148,654.5,433.2148" style="stroke:#181818;stroke-width:1.0;"/><line style="stroke:#181818;stroke-width:1.0;" x1="536" x2="656.5" y1="433.2148" y2="433.2148"/><text fill="#000000" font-family="sans-serif" font-size="13" lengthAdjust="spacing" textLength="100" x="543" y="428.4727">send(command)</text><polygon fill="#181818" points="547,458.5254,537,462.5254,547,466.5254,543,462.5254" style="stroke:#181818;stroke-width:1.0;"/><line style="stroke:#181818;stroke-width:1.0;" x1="541" x2="661.5" y1="462.5254" y2="462.5254"/><text fill="#000000" font-family="sans-serif" font-size="13" lengthAdjust="spacing" textLength="57" x="553" y="457.7832">response</text><polygon fill="#181818" points="330,487.8359,320,491.8359,330,495.8359,326,491.8359" style="stroke:#181818;stroke-width:1.0;"/><line style="stroke:#181818;stroke-width:1.0;" x1="324" x2="525" y1="491.8359" y2="491.8359"/><text fill="#000000" font-family="sans-serif" font-size="13" lengthAdjust="spacing" textLength="57" x="336" y="487.0938">response</text><line style="stroke:#181818;stroke-width:1.0;" x1="319" x2="361" y1="521.1465" y2="521.1465"/><line style="stroke:#181818;stroke-width:1.0;" x1="361" x2="361" y1="521.1465" y2="534.1465"/><line style="stroke:#181818;stroke-width:1.0;" x1="320" x2="361" y1="534.1465" y2="534.1465"/><polygon fill="#181818" points="330,530.1465,320,534.1465,330,538.1465,326,534.1465" style="stroke:#181818;stroke-width:1.0;"/><text fill="#000000" font-family="sans-serif" font-size="13" lengthAdjust="spacing" textLength="159" x="326" y="516.4043">parse_ccds(ccd_strings[])</text><polygon fill="#181818" points="514,559.457,524,563.457,514,567.457,518,563.457" style="stroke:#181818;stroke-width:1.0;"/><line style="stroke:#181818;stroke-width:1.0;" x1="319" x2="520" y1="563.457" y2="563.457"/><text fill="#000000" font-family="sans-serif" font-size="13" lengthAdjust="spacing" textLength="159" x="326" y="558.7148">execute('mono_discover')</text><polygon fill="#181818" points="650.5,588.7676,660.5,592.7676,650.5,596.7676,654.5,592.7676" style="stroke:#181818;stroke-width:1.0;"/><line style="stroke:#181818;stroke-width:1.0;" x1="536" x2="656.5" y1="592.7676" y2="592.7676"/><text fill="#000000" font-family="sans-serif" font-size="13" lengthAdjust="spacing" textLength="100" x="543" y="588.0254">send(command)</text><polygon fill="#181818" points="547,618.0781,537,622.0781,547,626.0781,543,622.0781" style="stroke:#181818;stroke-width:1.0;"/><line style="stroke:#181818;stroke-width:1.0;" x1="541" x2="661.5" y1="622.0781" y2="622.0781"/><text fill="#000000" font-family="sans-serif" font-size="13" lengthAdjust="spacing" textLength="57" x="553" y="617.3359">response</text><polygon fill="#181818" points="330,647.3887,320,651.3887,330,655.3887,326,651.3887" style="stroke:#181818;stroke-width:1.0;"/><line style="stroke:#181818;stroke-width:1.0;" x1="324" x2="525" y1="651.3887" y2="651.3887"/><text fill="#000000" font-family="sans-serif" font-size="13" lengthAdjust="spacing" textLength="57" x="336" y="646.6465">response</text><polygon fill="#181818" points="514,676.6992,524,680.6992,514,684.6992,518,680.6992" style="stroke:#181818;stroke-width:1.0;"/><line style="stroke:#181818;stroke-width:1.0;" x1="319" x2="520" y1="680.6992" y2="680.6992"/><text fill="#000000" font-family="sans-serif" font-size="13" lengthAdjust="spacing" textLength="126" x="326" y="675.957">execute('mono_list')</text><polygon fill="#181818" points="650.5,706.0098,660.5,710.0098,650.5,714.0098,654.5,710.0098" style="stroke:#181818;stroke-width:1.0;"/><line style="stroke:#181818;stroke-width:1.0;" x1="536" x2="656.5" y1="710.0098" y2="710.0098"/><text fill="#000000" font-family="sans-serif" font-size="13" lengthAdjust="spacing" textLength="100" x="543" y="705.2676">send(command)</text><polygon fill="#181818" points="547,735.3203,537,739.3203,547,743.3203,543,739.3203" style="stroke:#181818;stroke-width:1.0;"/><line style="stroke:#181818;stroke-width:1.0;" x1="541" x2="661.5" y1="739.3203" y2="739.3203"/><text fill="#000000" font-family="sans-serif" font-size="13" lengthAdjust="spacing" textLength="57" x="553" y="734.5781">response</text><polygon fill="#181818" points="330,764.6309,320,768.6309,330,772.6309,326,768.6309" style="stroke:#181818;stroke-width:1.0;"/><line style="stroke:#181818;stroke-width:1.0;" x1="324" x2="525" y1="768.6309" y2="768.6309"/><text fill="#000000" font-family="sans-serif" font-size="13" lengthAdjust="spacing" textLength="57" x="336" y="763.8887">response</text><line style="stroke:#181818;stroke-width:1.0;" x1="319" x2="361" y1="797.9414" y2="797.9414"/><line style="stroke:#181818;stroke-width:1.0;" x1="361" x2="361" y1="797.9414" y2="810.9414"/><line style="stroke:#181818;stroke-width:1.0;" x1="320" x2="361" y1="810.9414" y2="810.9414"/><polygon fill="#181818" points="330,806.9414,320,810.9414,330,814.9414,326,810.9414" style="stroke:#181818;stroke-width:1.0;"/><text fill="#000000" font-family="sans-serif" font-size="13" lengthAdjust="spacing" textLength="193" x="326" y="793.1992">parse_monos('mono_strings[]')</text><polygon fill="#181818" points="297,836.252,307,840.252,297,844.252,301,840.252" style="stroke:#181818;stroke-width:1.0;"/><line style="stroke:#181818;stroke-width:1.0;" x1="124" x2="303" y1="840.252" y2="840.252"/><text fill="#000000" font-family="sans-serif" font-size="13" lengthAdjust="spacing" textLength="161" x="131" y="835.5098">charge_coupled_devices()</text><polygon fill="#181818" points="135,865.5625,125,869.5625,135,873.5625,131,869.5625" style="stroke:#181818;stroke-width:1.0;"/><line style="stroke:#181818;stroke-width:1.0;" x1="129" x2="308" y1="869.5625" y2="869.5625"/><text fill="#000000" font-family="sans-serif" font-size="13" lengthAdjust="spacing" textLength="161" x="141" y="864.8203">charge_coupled_devices[]</text><polygon fill="#181818" points="297,894.873,307,898.873,297,902.873,301,898.873" style="stroke:#181818;stroke-width:1.0;"/><line style="stroke:#181818;stroke-width:1.0;" x1="124" x2="303" y1="898.873" y2="898.873"/><text fill="#000000" font-family="sans-serif" font-size="13" lengthAdjust="spacing" textLength="116" x="131" y="894.1309">monochromators()</text><polygon fill="#181818" points="135,924.1836,125,928.1836,135,932.1836,131,928.1836" style="stroke:#181818;stroke-width:1.0;"/><line style="stroke:#181818;stroke-width:1.0;" x1="129" x2="308" y1="928.1836" y2="928.1836"/><text fill="#000000" font-family="sans-serif" font-size="13" lengthAdjust="spacing" textLength="116" x="141" y="923.4414">monochromators[]</text><!--SRC=[tLIzRi8m4Dxz59OOI8Rs0HWw58HKgOnL1uGYSpw1LUApV0vgtxusWa18qaPCBPaSN-xxEpjE-M30E6M3V6Fqmbrip71l01VAgardPMOOQ8_-gr5xnpKJV62OKbbMre0ArEn-cRu-uYTAnMafHmi2K6oi44c2V7XgCayaU5J1a1KAWjchW5VIHEEr0u13f2yCxBAy1qEEvlFd-BIXeiGJ05ThvmcG-OmIoqBZO66TwKmaERIPqjf7x0k9tLbsxjPIWQn52BsXr5ERI7rS5lfGuNOwvn6BguqVpCJPGXKm6mFeuiGnpd_HpMXr1h6YhCv5EXZz334cHvQn7xBbjMwvqSVESFZB7beVnnl7M4Jfd2Nz7Bon6rwkybiIACdINOpoOEIVpZ9fvwE5UfpHnu2R3blbD_4qKELsg2_kUo_x-UVRsRfS3M1DIc7hgKmf36DhjaGMyGq0]--></g></svg>
